<?xml version="1.0" encoding="utf-8"?>
<!-- Generator: Adobe Illustrator 15.0.0, SVG Export Plug-In . SVG Version: 6.00 Build 0)  -->
<!DOCTYPE svg PUBLIC "-//W3C//DTD SVG 1.1//EN" "http://www.w3.org/Graphics/SVG/1.1/DTD/svg11.dtd">
<svg version="1.1" id="Calque_1" xmlns="http://www.w3.org/2000/svg" xmlns:xlink="http://www.w3.org/1999/xlink" x="0px" y="0px"
	 width="144px" height="144px" viewBox="0 0 144 144" enable-background="new 0 0 144 144" xml:space="preserve">
<path fill-rule="evenodd" clip-rule="evenodd" fill="#0EB4BE" d="M83.256,68.214c4.498,3.83,9.897,8.637,16.409,13.675
	c5.459,4.223,12.499,11.354,18.461,11.623c3.555,0.159,7.67-2.018,8.204-4.786c1.247-6.46-14.816-16.788-18.46-19.828
	c-8.059-6.725-14.015-11.617-20.513-17.776C75.717,58.192,60.494,75.946,43.6,66.847C39.133,49.328,55.445,42.143,63.428,32.66
	c-5.22-5.264-11.581-9.386-17.776-13.674c10.099-1.95,16.917,4.949,25.981,3.419c3.826-0.646,6.035-5.567,9.573-6.154
	c11.643-1.931,17.743,10.733,27.349,14.358c-7.866-1.026-17.704-5.997-26.665-8.205C71.53,34.837,59.338,45.436,51.805,60.693
	c13.828,1.586,25.029-12.784,36.237-18.46c12.865,9.014,23.492,20.266,35.554,30.084c6.076-3.268,10.181-8.508,16.409-11.624
	c-3.808,5.537-7.546,11.142-11.623,16.41c3.631,4.117,7.474,8.022,6.153,17.093c-3.091,5.225-10.407,8.314-17.777,5.47
	c-0.862,10.077-6.235,15.644-18.46,14.358c-5.472,5.102-11.847,12.644-23.247,9.572c-3.576,3.523-7.658,7.285-15.042,6.153
	c-1.809-0.277-4.22-2.753-6.837-3.419c-6.609-1.681-11.182-0.529-11.623-7.521c-6.991-1.441-13.429-3.437-12.991-12.308
	c-8.355-0.303-16.154-9.894-8.205-16.409c-3.647,0.229-5.986-0.851-8.888-1.367c-6.965-8.543,4.789-21.267-5.47-27.349
	c10.181,11.427,25.216,30.913,38.288,46.494c4.593,5.475,12.213,20.222,20.512,11.623C59.334,107.177,50.986,97.749,43.6,87.358
	c5.29,1.936,9.944,8.93,16.409,15.042c5.554,5.25,13.01,13.626,18.46,13.674c14.133,0.124,0.818-16.407-2.735-21.879
	c-4.138-6.373-7.137-10.892-10.939-15.726c4.047,2.713,9.279,8.896,15.042,15.042c4.598,4.902,11.241,13.799,16.408,14.358
	c3.297,0.356,9.724-3.341,10.256-6.838c0.945-6.21-7.692-13.196-10.939-17.093C90.475,77.833,87.02,73.7,83.256,68.214z"/>
</svg>
